<svg width="177" height="26" viewBox="0 0 177 26" fill="none" xmlns="http://www.w3.org/2000/svg">
<path d="M0.460938 2.58594H15.1797V5.26953H7.24609L7.23438 9.96875H13.3047V12.6523H7.23438V17.3164H15.1797V20H0.460938V2.58594ZM18.6719 2.58594H28.7148C30.0117 2.58594 31.1445 2.72266 32.1133 2.99609C33.0898 3.26953 33.9023 3.65234 34.5508 4.14453C35.207 4.63672 35.6992 5.22656 36.0273 5.91406C36.3555 6.60156 36.5195 7.35938 36.5195 8.1875C36.5195 9.21094 36.2773 10.1211 35.793 10.918C35.3086 11.707 34.5898 12.3359 33.6367 12.8047L37.293 20.0117H29.6406L26.875 13.6836H25.4453V20H18.6719V2.58594ZM25.8555 11.5625C26.4102 11.5625 26.9062 11.4844 27.3438 11.3281C27.7812 11.1719 28.1523 10.9531 28.457 10.6719C28.7617 10.3828 28.9961 10.043 29.1602 9.65234C29.3242 9.25391 29.4062 8.82031 29.4062 8.35156C29.4062 7.88281 29.3242 7.45312 29.1602 7.0625C28.9961 6.66406 28.7617 6.32422 28.457 6.04297C28.1523 5.75391 27.7812 5.53125 27.3438 5.375C26.9062 5.21875 26.4102 5.14062 25.8555 5.14062H25.457L25.4453 11.5625H25.8555ZM39.1914 14.1289C39.1914 13.457 39.2969 12.8438 39.5078 12.2891C39.7188 11.7344 40.0078 11.2383 40.375 10.8008C40.75 10.3555 41.1914 9.96875 41.6992 9.64062C42.207 9.3125 42.7578 9.03906 43.3516 8.82031C43.9453 8.60156 44.5664 8.4375 45.2148 8.32812C45.8633 8.21875 46.5195 8.16406 47.1836 8.16406C48.0586 8.16406 48.8516 8.25391 49.5625 8.43359C50.2812 8.60547 50.918 8.84375 51.4727 9.14844C52.0352 9.45312 52.5195 9.80859 52.9258 10.2148C53.3398 10.6211 53.6797 11.0547 53.9453 11.5156C54.2188 11.9688 54.418 12.4375 54.543 12.9219C54.6758 13.4062 54.7422 13.8789 54.7422 14.3398L45.8828 15.4062C46.0547 16.2734 46.3984 16.9453 46.9141 17.4219C47.4297 17.8984 48.1523 18.1367 49.082 18.1367C49.5898 18.1367 50.0625 18.0742 50.5 17.9492C50.9453 17.8242 51.293 17.6719 51.543 17.4922L52.4805 19.1328C52.1914 19.2812 51.875 19.4219 51.5312 19.5547C51.1953 19.6875 50.8203 19.8047 50.4062 19.9062C50 20 49.5469 20.0742 49.0469 20.1289C48.5547 20.1914 48.0117 20.2227 47.418 20.2227C45.9961 20.2227 44.7695 20.0586 43.7383 19.7305C42.707 19.3945 41.8516 18.9492 41.1719 18.3945C40.5 17.832 40 17.1836 39.6719 16.4492C39.3516 15.7148 39.1914 14.9414 39.1914 14.1289ZM49.0586 13.1445C49.0586 12.1289 48.9297 11.3906 48.6719 10.9297C48.4219 10.4688 48.0469 10.2383 47.5469 10.2383C47.2891 10.2383 47.0508 10.3008 46.832 10.4258C46.6133 10.5508 46.4258 10.7461 46.2695 11.0117C46.1133 11.2773 45.9883 11.6211 45.8945 12.043C45.8008 12.457 45.75 12.9609 45.7422 13.5547L49.0586 13.1445ZM56.1719 14.1875C56.1719 13.3984 56.3359 12.6406 56.6641 11.9141C57 11.1875 57.5039 10.5469 58.1758 9.99219C58.8477 9.4375 59.6953 8.99609 60.7188 8.66797C61.75 8.33203 62.9609 8.16406 64.3516 8.16406C65.3516 8.16406 66.207 8.26172 66.918 8.45703C67.6289 8.64453 68.2109 8.89453 68.6641 9.20703C69.1172 9.51953 69.4492 9.875 69.6602 10.2734C69.8711 10.6719 69.9766 11.0781 69.9766 11.4922C69.9766 11.8125 69.9023 12.1172 69.7539 12.4062C69.6055 12.6953 69.4062 12.9531 69.1562 13.1797C68.9062 13.3984 68.6133 13.5742 68.2773 13.707C67.9414 13.8398 67.5859 13.9062 67.2109 13.9062L64.2344 9.83984C64.0156 10.0352 63.8125 10.2656 63.625 10.5312C63.4453 10.7969 63.2852 11.1016 63.1445 11.4453C63.0117 11.7812 62.9062 12.1602 62.8281 12.582C62.7578 12.9961 62.7227 13.4531 62.7227 13.9531C62.7227 14.6484 62.8086 15.2578 62.9805 15.7812C63.1523 16.3047 63.3867 16.7422 63.6836 17.0938C63.9805 17.4375 64.332 17.6992 64.7383 17.8789C65.1523 18.0508 65.6016 18.1367 66.0859 18.1367C66.3203 18.1367 66.5547 18.1211 66.7891 18.0898C67.0312 18.0508 67.2578 18.0039 67.4688 17.9492C67.6875 17.8867 67.8867 17.8164 68.0664 17.7383C68.2461 17.6602 68.3984 17.5781 68.5234 17.4922L69.4609 19.1328C69.1719 19.2812 68.8555 19.4219 68.5117 19.5547C68.1758 19.6875 67.8008 19.8047 67.3867 19.9062C66.9805 20 66.5312 20.0742 66.0391 20.1289C65.5469 20.1914 65.0078 20.2227 64.4219 20.2227C63.0156 20.2227 61.793 20.0586 60.7539 19.7305C59.7227 19.3945 58.8672 18.9492 58.1875 18.3945C57.5078 17.8398 57 17.1992 56.6641 16.4727C56.3359 15.7461 56.1719 14.9844 56.1719 14.1875ZM70.5977 8.38672H77.2539L80.0664 15.582L82.8789 8.38672H86.0078L81.0156 20.2344C80.6953 20.9844 80.3516 21.6484 79.9844 22.2266C79.6172 22.8047 79.1914 23.3125 78.707 23.75C78.2305 24.1953 77.6836 24.582 77.0664 24.9102C76.4492 25.2383 75.7383 25.5312 74.9336 25.7891L74.1133 23.8672C74.7383 23.6484 75.2812 23.3984 75.7422 23.1172C76.2031 22.8438 76.5938 22.5547 76.9141 22.25C77.2344 21.9531 77.4922 21.6523 77.6875 21.3477C77.8906 21.043 78.0469 20.7539 78.1562 20.4805L78.3438 19.9883H75.5078L70.5977 8.38672ZM87.0625 14.1875C87.0625 13.3984 87.2266 12.6406 87.5547 11.9141C87.8906 11.1875 88.3945 10.5469 89.0664 9.99219C89.7383 9.4375 90.5859 8.99609 91.6094 8.66797C92.6406 8.33203 93.8516 8.16406 95.2422 8.16406C96.2422 8.16406 97.0977 8.26172 97.8086 8.45703C98.5195 8.64453 99.1016 8.89453 99.5547 9.20703C100.008 9.51953 100.34 9.875 100.551 10.2734C100.762 10.6719 100.867 11.0781 100.867 11.4922C100.867 11.8125 100.793 12.1172 100.645 12.4062C100.496 12.6953 100.297 12.9531 100.047 13.1797C99.7969 13.3984 99.5039 13.5742 99.168 13.707C98.832 13.8398 98.4766 13.9062 98.1016 13.9062L95.125 9.83984C94.9062 10.0352 94.7031 10.2656 94.5156 10.5312C94.3359 10.7969 94.1758 11.1016 94.0352 11.4453C93.9023 11.7812 93.7969 12.1602 93.7188 12.582C93.6484 12.9961 93.6133 13.4531 93.6133 13.9531C93.6133 14.6484 93.6992 15.2578 93.8711 15.7812C94.043 16.3047 94.2773 16.7422 94.5742 17.0938C94.8711 17.4375 95.2227 17.6992 95.6289 17.8789C96.043 18.0508 96.4922 18.1367 96.9766 18.1367C97.2109 18.1367 97.4453 18.1211 97.6797 18.0898C97.9219 18.0508 98.1484 18.0039 98.3594 17.9492C98.5781 17.8867 98.7773 17.8164 98.957 17.7383C99.1367 17.6602 99.2891 17.5781 99.4141 17.4922L100.352 19.1328C100.062 19.2812 99.7461 19.4219 99.4023 19.5547C99.0664 19.6875 98.6914 19.8047 98.2773 19.9062C97.8711 20 97.4219 20.0742 96.9297 20.1289C96.4375 20.1914 95.8984 20.2227 95.3125 20.2227C93.9062 20.2227 92.6836 20.0586 91.6445 19.7305C90.6133 19.3945 89.7578 18.9492 89.0781 18.3945C88.3984 17.8398 87.8906 17.1992 87.5547 16.4727C87.2266 15.7461 87.0625 14.9844 87.0625 14.1875ZM103.094 0.652344H109.457V20H103.094V0.652344ZM111.988 14.1289C111.988 13.457 112.094 12.8438 112.305 12.2891C112.516 11.7344 112.805 11.2383 113.172 10.8008C113.547 10.3555 113.988 9.96875 114.496 9.64062C115.004 9.3125 115.555 9.03906 116.148 8.82031C116.742 8.60156 117.363 8.4375 118.012 8.32812C118.66 8.21875 119.316 8.16406 119.98 8.16406C120.855 8.16406 121.648 8.25391 122.359 8.43359C123.078 8.60547 123.715 8.84375 124.27 9.14844C124.832 9.45312 125.316 9.80859 125.723 10.2148C126.137 10.6211 126.477 11.0547 126.742 11.5156C127.016 11.9688 127.215 12.4375 127.34 12.9219C127.473 13.4062 127.539 13.8789 127.539 14.3398L118.68 15.4062C118.852 16.2734 119.195 16.9453 119.711 17.4219C120.227 17.8984 120.949 18.1367 121.879 18.1367C122.387 18.1367 122.859 18.0742 123.297 17.9492C123.742 17.8242 124.09 17.6719 124.34 17.4922L125.277 19.1328C124.988 19.2812 124.672 19.4219 124.328 19.5547C123.992 19.6875 123.617 19.8047 123.203 19.9062C122.797 20 122.344 20.0742 121.844 20.1289C121.352 20.1914 120.809 20.2227 120.215 20.2227C118.793 20.2227 117.566 20.0586 116.535 19.7305C115.504 19.3945 114.648 18.9492 113.969 18.3945C113.297 17.832 112.797 17.1836 112.469 16.4492C112.148 15.7148 111.988 14.9414 111.988 14.1289ZM121.855 13.1445C121.855 12.1289 121.727 11.3906 121.469 10.9297C121.219 10.4688 120.844 10.2383 120.344 10.2383C120.086 10.2383 119.848 10.3008 119.629 10.4258C119.41 10.5508 119.223 10.7461 119.066 11.0117C118.91 11.2773 118.785 11.6211 118.691 12.043C118.598 12.457 118.547 12.9609 118.539 13.5547L121.855 13.1445ZM130.328 2.58594H139.539C140.836 2.58594 141.969 2.69531 142.938 2.91406C143.914 3.13281 144.727 3.44531 145.375 3.85156C146.031 4.25 146.523 4.73438 146.852 5.30469C147.18 5.86719 147.344 6.49609 147.344 7.19141C147.344 7.88672 147.148 8.54297 146.758 9.16016C146.375 9.76953 145.812 10.2969 145.07 10.7422C146.289 11.0938 147.199 11.6094 147.801 12.2891C148.402 12.9688 148.703 13.8008 148.703 14.7852C148.703 15.457 148.539 16.1055 148.211 16.7305C147.891 17.3555 147.406 17.9102 146.758 18.3945C146.117 18.8789 145.312 19.2695 144.344 19.5664C143.375 19.8555 142.242 20 140.945 20H130.328V2.58594ZM137.828 9.66406C138.469 9.66406 139.008 9.60547 139.445 9.48828C139.883 9.36328 140.23 9.19531 140.488 8.98438C140.754 8.77344 140.941 8.53125 141.051 8.25781C141.168 7.98438 141.227 7.69922 141.227 7.40234C141.227 7.10547 141.168 6.82031 141.051 6.54688C140.941 6.27344 140.754 6.03516 140.488 5.83203C140.23 5.62109 139.883 5.45312 139.445 5.32812C139.008 5.20312 138.469 5.14062 137.828 5.14062H137.113L137.102 9.66406H137.828ZM137.828 17.4453C138.523 17.4453 139.109 17.3711 139.586 17.2227C140.062 17.0742 140.449 16.8711 140.746 16.6133C141.043 16.3555 141.258 16.0547 141.391 15.7109C141.523 15.3594 141.59 14.9844 141.59 14.5859C141.59 14.2344 141.52 13.8906 141.379 13.5547C141.238 13.2188 141.027 12.9219 140.746 12.6641C140.473 12.3984 140.133 12.1875 139.727 12.0312C139.32 11.8672 138.852 11.7852 138.32 11.7852H137.102V17.4453H137.828ZM154.527 6.45312C153.949 6.45312 153.449 6.39062 153.027 6.26562C152.613 6.14062 152.273 5.96875 152.008 5.75C151.742 5.52344 151.547 5.26562 151.422 4.97656C151.297 4.67969 151.234 4.35938 151.234 4.01562C151.234 3.67969 151.297 3.36328 151.422 3.06641C151.547 2.76953 151.742 2.51172 152.008 2.29297C152.273 2.06641 152.613 1.89062 153.027 1.76562C153.449 1.64062 153.949 1.57812 154.527 1.57812C155.113 1.57812 155.613 1.64062 156.027 1.76562C156.441 1.89062 156.781 2.06641 157.047 2.29297C157.32 2.51172 157.52 2.76953 157.645 3.06641C157.77 3.36328 157.832 3.67969 157.832 4.01562C157.832 4.35938 157.77 4.67969 157.645 4.97656C157.52 5.26562 157.32 5.52344 157.047 5.75C156.781 5.96875 156.441 6.14062 156.027 6.26562C155.613 6.39062 155.113 6.45312 154.527 6.45312ZM151.352 8.38672H157.715V20H151.352V8.38672ZM161.008 8.38672H166.621L167.184 10.0742C168.012 9.44141 168.852 8.96484 169.703 8.64453C170.562 8.32422 171.465 8.16406 172.41 8.16406C172.949 8.16406 173.449 8.25391 173.91 8.43359C174.379 8.61328 174.785 8.89062 175.129 9.26562C175.473 9.64062 175.742 10.125 175.938 10.7188C176.133 11.3047 176.23 12.0078 176.23 12.8281V20H169.867V12.4297C169.867 12.0234 169.777 11.7266 169.598 11.5391C169.418 11.3516 169.156 11.2578 168.812 11.2578C168.586 11.2578 168.336 11.3047 168.062 11.3984C167.789 11.4922 167.559 11.6406 167.371 11.8438V20H161.008V8.38672Z" fill="#009A7E"/>
</svg>
